<?xml version="1.0" encoding="utf-8"?>
<!-- Generator: Adobe Illustrator 19.0.0, SVG Export Plug-In . SVG Version: 6.00 Build 0)  -->
<svg version="1.1" id="Calque_1" xmlns="http://www.w3.org/2000/svg" xmlns:xlink="http://www.w3.org/1999/xlink" x="0px" y="0px"
	 viewBox="0 0 33 26.8" style="enable-background:new 0 0 33 26.8;" xml:space="preserve">
<style type="text/css">
	.st0{fill:#FFFFFF;}
</style>
<g>
	<g>
		<path class="st0" d="M29.6,6.7c0,0.3,0,0.6,0,0.9c0,8.9-6.8,19.3-19.3,19.3c-3.8,0-7.4-1.1-10.4-3c0.5,0.1,1.1,0.1,1.6,0.1
			c3.2,0,6.1-1.1,8.4-2.9c-3-0.1-5.5-2-6.3-4.7c0.4,0.1,0.8,0.1,1.3,0.1c0.6,0,1.2-0.1,1.8-0.2c-3.1-0.6-5.4-3.4-5.4-6.6
			c0,0,0-0.1,0-0.1c0.9,0.5,2,0.8,3.1,0.8c-1.8-1.2-3-3.3-3-5.6c0-1.2,0.3-2.4,0.9-3.4C5.6,5.3,10.6,8,16.2,8.3
			c-0.1-0.5-0.2-1.1-0.2-1.6c0-2.8,1.9-5.5,4.6-6.3c2.8-0.9,5.4,0,7.1,1.8c1.5-0.3,3-0.9,4.3-1.6c-0.5,1.6-1.6,2.9-3,3.7
			c1.4-0.2,2.7-0.5,3.9-1.1C32.1,4.5,30.9,5.7,29.6,6.7L29.6,6.7z M29.6,6.7"/>
	</g>
</g>
</svg>
